<?xml version="1.0" encoding="utf-8"?>
<!-- Generator: Adobe Illustrator 26.3.1, SVG Export Plug-In . SVG Version: 6.00 Build 0)  -->
<svg version="1.1" id="Logomark" xmlns="http://www.w3.org/2000/svg" xmlns:xlink="http://www.w3.org/1999/xlink" x="0px" y="0px"
	 viewBox="0 0 1253.98 1080" style="enable-background:new 0 0 1253.98 1080;" xml:space="preserve">
<style type="text/css">
	.st0{fill:#FFFFFF;}
</style>
<path class="st0" d="M624.09,888.71h133.67c160.41,0,290.59-130.18,290.59-290.59c0-89.5-40.68-169.7-103.45-223.17L738,816.64
	L628.74,707.38l51.14-109.26H519.47l-33.71,74.39c-11.62,25.57-17.44,52.31-17.44,75.55C468.33,827.1,527.61,888.71,624.09,888.71
	 M309.09,705.06l206.9-441.7l109.26,109.26L574.1,481.88h160.41l33.71-74.39c11.62-25.57,17.44-52.31,17.44-75.55
	c0-79.04-59.28-140.65-155.76-140.65H496.23c-160.41,0-290.59,130.18-290.59,290.59C205.64,571.38,246.32,651.59,309.09,705.06
	 M1013.15,830.59c-16.05,0-29.06,13.01-29.06,29.06c0,16.05,13.01,29.06,29.06,29.06c16.05,0,29.06-13.01,29.06-29.06
	C1042.21,843.6,1029.2,830.59,1013.15,830.59z M1013.15,882.9c-12.84,0-23.25-10.41-23.25-23.25c0-12.84,10.41-23.25,23.25-23.25
	c12.84,0,23.25,10.41,23.25,23.25C1036.39,872.49,1025.99,882.9,1013.15,882.9z M1020.27,861.73c3.38-1.29,5.74-4,5.74-8.14
	c0-6.14-5.21-9.48-11.43-9.48h-12.33v30.25h7.12v-11.34h4.32l6.23,11.34h7.87L1020.27,861.73z M1013.86,857.99h-4.5v-8.76h4.5
	c3.02,0,5.07,1.78,5.07,4.45C1018.93,856.39,1016.89,857.99,1013.86,857.99z"/>
</svg>
